# xmcd CD database file
#
# Track frame offsets:
#	150
#	14493
#	26712
#	40517
#	52161
#	63303
#	76684
#	88818
#	102850
#	119437
#	135366
#	148504
#
# Disc length: 2139 seconds
#
# Revision: 0
# Processed by: cddbd v1.5.2PL0 Copyright (c) Steve Scherf et al.
# Submitted via: CDex 1.70beta2
#
DISCID=9908590c
DTITLE=CM-HFT70'S - Country Music - Hits From The 70's
DYEAR=2011
DGENRE=Country
TTITLE0=Rhinestone Cowboy - Glen Cambell
TTITLE1=Behind Closed Doors - Charlie Rich
TTITLE2=Teddy Bear Son - Barbara Fairchind
TTITLE3=Back In Harmony - Charlie Louvin and Tanya Tucker
TTITLE4=Back In The Saddle Again - Moe Bandy
TTITLE5=9,999,999 Tears - Dickey Lee
TTITLE6=Wasted Days and Wasted Nights - Freddy Fender
TTITLE7=It Only Hurts For A Little While - Margo Smith
TTITLE8=For The Good Times - Ferlin Husky
TTITLE9=Reconsider Me - Narvel Felts
TTITLE10=Afternoon Delight - Johnny Carver
TTITLE11=Take This Job And Shove It - Johnny Paycheck
EXTD=
EXTT0=
EXTT1=
EXTT2=
EXTT3=
EXTT4=
EXTT5=
EXTT6=
EXTT7=
EXTT8=
EXTT9=
EXTT10=
EXTT11=
PLAYORDER=
